<svg preserveAspectRatio="none" overflow="visible" style="display: block;" width="1451.03" height="285.74" viewBox="0 0 1451.03 285.74" fill="none" xmlns="http://www.w3.org/2000/svg">
<g id="Group 10">
<path id="Vector" d="M598.641 142.948L626.013 178.822L625.952 229.989L585.307 285.406H469.151V0.490441L585.062 0.276357L626.044 55.9688L625.799 107.624L598.672 142.948H598.641ZM585.827 75.2669C585.949 60.7092 583.349 47.4666 574.205 35.7837C569.373 29.6059 561.727 24.5596 553.286 24.5902L528.544 24.6514C517.717 24.6514 508.481 33.5817 508.481 44.7447V110.377C508.481 121.662 517.595 130.654 528.575 130.654H557.721C584.389 130.654 585.643 93.3112 585.796 75.2975L585.827 75.2669ZM574.389 249.898C583.961 237.512 585.918 224.086 585.827 209.375C585.704 191.117 583.931 156.344 558.607 155.334C548.423 154.937 538.331 154.937 528.055 155.304C517.045 155.701 508.42 164.693 508.42 175.856L508.512 241.427C508.512 251.795 517.106 260.541 527.198 261.061C546.435 262.04 563.226 264.364 574.389 249.898Z" fill="white"/>
<path id="Vector_2" d="M786.762 5.41425V279.35C786.762 281.613 784.743 285.742 783 285.711L747.646 285.1L747.401 165.243C747.401 159.585 742.049 155.059 736.697 155.059H683.757C676.937 155.059 672.808 160.228 672.777 166.772L672.594 284.977C658.587 285.925 647.24 286.017 633.416 284.824V1.16315C647.087 -0.151938 658.709 -0.0601879 672.594 0.979649L672.808 120.928C672.808 126.311 678.129 130.806 683.267 130.806H736.911C743.18 130.776 747.401 125.424 747.401 119.49L747.554 0.857315L781.654 0.000978996C783.52 -0.0601879 786.731 2.99816 786.731 5.41425H786.762Z" fill="white"/>
<path id="Vector_3" d="M914.201 285.376L834.898 285.314L794.1 184.634L794.253 78.8151L834.959 0.33804L912.519 0.399207L954.785 56.7339L954.724 206.348L914.201 285.345V285.376ZM899.704 243.843L909.277 217.511C911.846 210.446 913.314 202.005 913.314 194.115L913.375 69.2425C913.375 58.7218 909.95 49.5162 905.087 40.8611C898.542 29.2394 887.899 24.3154 874.871 24.1931C860.588 24.0708 849.762 30.9215 846.122 45.2345C842.942 57.7126 836.091 70.4658 836.03 83.7696L835.601 169.801C835.54 179.312 836.764 188.824 839.241 197.785L851.872 243.201C855.114 254.884 864.656 261.276 875.696 261.521C886.737 261.765 895.545 255.404 899.735 243.874L899.704 243.843Z" fill="white"/>
<path id="Vector_4" d="M418.78 6.14661C418.78 1.49792 422.419 -0.0924144 425.814 0.0299194L458.018 1.06976L458.079 206.04L424.866 285.435L341.893 285.74C340.058 285.74 336.633 282.651 336.113 281L304.642 182.368L304.887 0.794505C318.955 0.0910862 329.843 0.0910863 343.881 0.855672L344.003 172.765C344.003 181.359 345.196 189.8 347.276 197.782L358.959 242.618C362.17 254.882 371.987 261.702 384.893 261.457C394.466 261.274 405.384 256.839 408.045 246.288C411.654 232.036 418.168 217.234 418.199 201.697L418.749 6.11602L418.78 6.14661Z" fill="white"/>
<path id="Vector_5" d="M1075.77 200.963L1076.6 0.764277L1110.45 0.0302747C1112.35 -0.00030872 1115.53 3.33329 1115.53 5.22946V206.377L1082.16 285.68L995.154 285.404L962.215 183.439L962.307 0.978361C976.069 0.0302746 986.957 0.0608581 1001.39 0.825444L1001.55 172.704C1001.55 180.778 1002.43 188.883 1004.39 196.345L1016.75 243.536C1019.8 255.218 1029.84 261.58 1041.92 261.519C1051.46 261.457 1062.59 257.329 1065.34 246.9C1069.17 232.464 1075.71 217.601 1075.77 201.025V200.963Z" fill="white"/>
<path id="Vector_6" d="M1246.24 285.435L1164.34 285.588L1122.72 230.294C1120.94 223.963 1121.86 215.246 1122.81 207.723L1158.22 207.172C1169.42 206.989 1154.95 232.862 1180.64 255.433C1187.77 261.703 1197.83 261.152 1206.7 261.642C1221.07 262.437 1232.27 257.054 1239.3 244.79C1246.33 232.526 1246.89 220.109 1246.79 206.347C1246.73 193.502 1246.27 181.543 1240.37 170.166C1235.66 161.114 1227.95 155.181 1217.13 155.119L1153.02 154.814L1123.6 106.736L1123.11 55.7844L1163.67 0.520143L1244.59 0.397809L1286.28 55.8456C1287.56 62.3599 1286.92 70.8009 1285.97 78.2327L1250.74 78.722C1239.27 78.8749 1253.86 52.0226 1227.65 30.0637C1220.71 24.2529 1210.92 24.7422 1202.42 24.3141C1188.53 23.5801 1177.67 29.0239 1170.82 40.7985C1164.4 51.8086 1163.15 63.8584 1163.15 76.8258C1163.15 99.3046 1166.91 130.714 1196.21 130.806L1257.01 131.05L1286.22 179.189L1286.98 229.682L1246.24 285.466V285.435Z" fill="white"/>
<path id="Vector_7" d="M1410.08 151.115L1352.09 151.635C1340.62 151.727 1332.15 161.605 1332.15 172.738V240.052C1332.15 250.114 1339.71 261.063 1350.81 261.124L1449.93 261.735C1451.34 270.666 1451.52 277.425 1449.47 285.59L1292.88 285.468L1292.82 5.44625C1292.82 3.67241 1295.54 0.216487 1297.2 0.216487L1449.65 0.277654C1451.46 8.6881 1451.46 15.2024 1449.84 24.2551L1353.68 24.4997C1342.15 24.4997 1332.34 32.9102 1332.31 44.7765L1332.18 105.79C1332.18 116.923 1340.59 126.832 1352.12 126.924L1409.77 127.444C1411.24 135.487 1411.24 141.726 1410.11 151.115H1410.08Z" fill="white"/>
<path id="Vector_8" d="M44.9271 196.867L57.558 242.62C61.228 255.863 71.9017 261.796 85.2055 261.704C97.133 261.612 108.235 257.942 112.639 246.045C117.043 234.148 118.97 221.395 119.795 207.48L159.737 207.694C160.196 214.422 162.582 223.781 159.89 229.102C148.238 248.859 136.402 267.148 124.077 285.712L40.9512 285.529L0.0917503 184.726L0 79.7021L42.9391 0.246379L120.193 0.33813L159.523 54.899C161.083 62.3613 160.991 69.7014 159.707 78.2341L124.444 78.6317C113.342 78.7541 126.677 58.1714 106.736 33.7047C100.742 26.3646 91.2916 24.499 82.2083 24.2238C67.8646 23.8262 57.7415 31.8085 53.4598 45.204C49.4228 57.8044 41.9605 70.3742 41.8993 84.1979L41.5017 169.77C41.4711 178.64 42.4192 187.753 44.9271 196.837V196.867Z" fill="white"/>
<path id="Vector_9" d="M230.723 261.398L321.984 261.581C324.369 269.288 324.247 276.598 322.412 285.559L173.746 285.681C172.278 285.681 169.25 282.439 169.25 280.757L169.311 1.13272C183.043 -0.121201 194.879 -0.0906172 208.795 1.01039L208.978 241.09C208.978 252.957 218.979 261.367 230.692 261.398H230.723Z" fill="white"/>
</g>
</svg>
